<svg xmlns="http://www.w3.org/2000/svg" xmlns:xlink="http://www.w3.org/1999/xlink" width="400" zoomAndPan="magnify" viewBox="0 0 300 187.499995" height="250" preserveAspectRatio="xMidYMid meet" version="1.0"><defs><filter x="0%" y="0%" width="100%" height="100%" id="06e109cff2"><feColorMatrix values="0 0 0 0 1 0 0 0 0 1 0 0 0 0 1 0 0 0 1 0" color-interpolation-filters="sRGB"/></filter><g/><mask id="6953c3e355"><g filter="url(#06e109cff2)"><rect x="-30" width="360" fill="#000000" y="-18.749999" height="224.999994" fill-opacity="0.5098"/></g></mask><clipPath id="c54306cb46"><path d="M 67 0.925781 L 101 0.925781 L 101 32 L 67 32 Z M 67 0.925781 " clip-rule="nonzero"/></clipPath><clipPath id="9b32ca5f1e"><path d="M 99 16 L 123.839844 16 L 123.839844 43 L 99 43 Z M 99 16 " clip-rule="nonzero"/></clipPath><clipPath id="f30cb4707d"><path d="M 1.152344 65.488281 L 4.214844 65.488281 L 4.214844 68.570312 L 1.152344 68.570312 Z M 1.152344 65.488281 " clip-rule="nonzero"/></clipPath><clipPath id="9974c9650c"><rect x="0" width="124" y="0" height="69"/></clipPath></defs><g fill="#545454" fill-opacity="1"><g transform="translate(26.295498, 112.469864)"><g><path d="M 39.90625 -8.53125 C 40 -8.5 40.082031 -8.453125 40.15625 -8.390625 C 40.238281 -8.328125 40.265625 -8.242188 40.234375 -8.140625 C 40.203125 -8.035156 40.140625 -7.929688 40.046875 -7.828125 C 40.035156 -7.804688 40.015625 -7.773438 39.984375 -7.734375 C 39.972656 -7.710938 39.953125 -7.695312 39.921875 -7.6875 C 39.890625 -7.675781 39.863281 -7.671875 39.84375 -7.671875 C 39.1875 -7.691406 38.769531 -7.515625 38.59375 -7.140625 C 38.414062 -6.773438 38.3125 -6.300781 38.28125 -5.71875 C 38.101562 -1.664062 37.894531 2.367188 37.65625 6.390625 C 37.601562 7.285156 37.550781 8.179688 37.5 9.078125 C 37.476562 9.554688 37.410156 10.023438 37.296875 10.484375 C 37.203125 10.859375 36.945312 11.050781 36.53125 11.0625 C 36.445312 11.0625 36.363281 11.046875 36.28125 11.015625 C 36.195312 10.992188 36.125 10.925781 36.0625 10.8125 C 35.726562 10.125 35.710938 6.894531 36.015625 1.125 C 36.273438 -3.957031 36.113281 -6.679688 35.53125 -7.046875 C 35.132812 -7.296875 34.175781 -7.367188 32.65625 -7.265625 L 7.0625 -5.453125 C 6.914062 -5.441406 6.757812 -5.4375 6.59375 -5.4375 C 6.570312 -5.4375 6.550781 -5.4375 6.53125 -5.4375 C 6 -5.46875 5.191406 -3.367188 4.109375 0.859375 C 3.035156 5.097656 2.328125 8.179688 1.984375 10.109375 C 1.648438 12.035156 1.117188 13.117188 0.390625 13.359375 C 0.285156 13.398438 0.179688 13.429688 0.078125 13.453125 C -0.0234375 13.484375 -0.132812 13.472656 -0.25 13.421875 C -0.394531 13.367188 -0.492188 13.285156 -0.546875 13.171875 C -0.597656 13.054688 -0.625 12.945312 -0.625 12.84375 C -0.625 12.78125 -0.625 12.710938 -0.625 12.640625 C -0.601562 11.984375 -0.535156 11.335938 -0.421875 10.703125 C 0.429688 6.078125 1.609375 1.5625 3.109375 -2.84375 C 3.160156 -2.988281 3.210938 -3.144531 3.265625 -3.3125 C 3.398438 -3.695312 3.519531 -4.085938 3.625 -4.484375 C 3.738281 -4.941406 3.550781 -5.160156 3.0625 -5.140625 C 2.113281 -5.085938 1.171875 -5.023438 0.234375 -4.953125 C 0.179688 -4.941406 0.125 -4.929688 0.0625 -4.921875 C -0.644531 -4.878906 -1.359375 -4.832031 -2.078125 -4.78125 C -3.421875 -4.664062 -4.765625 -4.566406 -6.109375 -4.484375 C -6.128906 -4.484375 -6.148438 -4.484375 -6.171875 -4.484375 C -6.972656 -4.378906 -7.789062 -4.410156 -8.625 -4.578125 C -8.707031 -4.597656 -8.785156 -4.632812 -8.859375 -4.6875 C -8.941406 -4.738281 -8.976562 -4.816406 -8.96875 -4.921875 C -8.957031 -5.109375 -8.894531 -5.253906 -8.78125 -5.359375 C -8.65625 -5.453125 -8.519531 -5.515625 -8.375 -5.546875 C -8.226562 -5.578125 -8.078125 -5.59375 -7.921875 -5.59375 C -7.867188 -5.59375 -7.820312 -5.59375 -7.78125 -5.59375 C -6.539062 -5.695312 -5.289062 -5.796875 -4.03125 -5.890625 C -1.695312 -6.066406 0.644531 -6.222656 3 -6.359375 C 3.945312 -6.410156 4.582031 -6.875 4.90625 -7.75 C 7.539062 -14.988281 10.640625 -21.992188 14.203125 -28.765625 C 15.367188 -30.972656 16.625 -33.144531 17.96875 -35.28125 C 19.3125 -37.414062 20.753906 -39.453125 22.296875 -41.390625 C 23.648438 -43.097656 25.140625 -44.664062 26.765625 -46.09375 C 27.671875 -46.875 28.691406 -47.5 29.828125 -47.96875 C 30.410156 -48.207031 31.03125 -48.332031 31.6875 -48.34375 C 32.882812 -48.375 33.910156 -47.894531 34.765625 -46.90625 C 35.484375 -46.070312 36.03125 -45.160156 36.40625 -44.171875 C 37.113281 -42.285156 37.601562 -40.375 37.875 -38.4375 C 38.289062 -35.4375 38.539062 -32.429688 38.625 -29.421875 C 38.71875 -26.304688 38.742188 -23.1875 38.703125 -20.0625 C 38.671875 -16.945312 38.628906 -13.84375 38.578125 -10.75 C 38.578125 -10.675781 38.570312 -10.609375 38.5625 -10.546875 C 38.550781 -10.410156 38.539062 -10.269531 38.53125 -10.125 C 38.5 -9.664062 38.523438 -9.226562 38.609375 -8.8125 C 38.742188 -8.707031 38.878906 -8.644531 39.015625 -8.625 C 39.148438 -8.613281 39.28125 -8.613281 39.40625 -8.625 C 39.570312 -8.632812 39.738281 -8.601562 39.90625 -8.53125 Z M 36.25 -13.53125 C 36.269531 -14.082031 36.28125 -14.640625 36.28125 -15.203125 C 36.28125 -18.035156 36.265625 -20.867188 36.234375 -23.703125 C 36.203125 -26.546875 36.101562 -29.390625 35.9375 -32.234375 C 35.789062 -34.984375 35.457031 -37.734375 34.9375 -40.484375 C 34.695312 -41.785156 34.304688 -43.066406 33.765625 -44.328125 C 33.484375 -45.003906 33.085938 -45.617188 32.578125 -46.171875 C 31.878906 -46.929688 31.085938 -47.148438 30.203125 -46.828125 C 29.484375 -46.566406 28.835938 -46.179688 28.265625 -45.671875 C 27.203125 -44.734375 26.207031 -43.707031 25.28125 -42.59375 C 23.875 -40.914062 22.570312 -39.15625 21.375 -37.3125 C 20.175781 -35.476562 19.050781 -33.582031 18 -31.625 C 16.019531 -27.925781 14.175781 -24.140625 12.46875 -20.265625 C 10.769531 -16.398438 9.1875 -12.460938 7.71875 -8.453125 C 7.6875 -8.390625 7.660156 -8.328125 7.640625 -8.265625 C 7.554688 -8.097656 7.5 -7.878906 7.46875 -7.609375 C 7.445312 -7.347656 7.617188 -7.222656 7.984375 -7.234375 C 24.679688 -8.179688 33.769531 -8.691406 35.25 -8.765625 C 35.664062 -8.773438 35.9375 -8.84375 36.0625 -8.96875 C 36.1875 -9.09375 36.253906 -9.375 36.265625 -9.8125 C 36.273438 -10.820312 36.269531 -11.832031 36.25 -12.84375 C 36.25 -13.070312 36.25 -13.300781 36.25 -13.53125 Z M 36.25 -13.53125 "/></g></g><g transform="translate(67.597558, 112.469864)"><g><path d="M 20.765625 -8.53125 C 21.171875 -8.71875 21.410156 -8.753906 21.484375 -8.640625 C 21.554688 -8.390625 21.332031 -7.945312 20.8125 -7.3125 C 20.300781 -6.675781 19.601562 -6.03125 18.71875 -5.375 C 16.582031 -3.894531 14.785156 -3.007812 13.328125 -2.71875 C 11.878906 -2.425781 10.691406 -2.515625 9.765625 -2.984375 C 8.847656 -3.460938 8.164062 -4.113281 7.71875 -4.9375 C 7.1875 -5.875 6.851562 -6.796875 6.71875 -7.703125 C 6.539062 -8.703125 6.296875 -9.265625 5.984375 -9.390625 C 5.671875 -9.523438 5.335938 -9.382812 4.984375 -8.96875 C 4.640625 -8.5625 4.300781 -8.019531 3.96875 -7.34375 C 3.632812 -6.675781 3.359375 -6.019531 3.140625 -5.375 C 2.921875 -4.738281 2.800781 -4.253906 2.78125 -3.921875 C 2.71875 -3.734375 2.660156 -3.554688 2.609375 -3.390625 C 2.523438 -3.128906 2.429688 -2.875 2.328125 -2.625 C 2.054688 -1.914062 1.582031 -1.65625 0.90625 -1.84375 C 0.53125 -1.90625 0.3125 -2.132812 0.25 -2.53125 C 0.226562 -2.789062 0.21875 -3.066406 0.21875 -3.359375 C 0.21875 -3.585938 0.207031 -3.828125 0.1875 -4.078125 C 0.144531 -5.773438 0.101562 -7.484375 0.0625 -9.203125 C 0.0625 -9.398438 0.15625 -9.539062 0.34375 -9.625 C 0.539062 -9.707031 0.769531 -9.742188 1.03125 -9.734375 C 1.289062 -9.722656 1.519531 -9.679688 1.71875 -9.609375 C 1.914062 -9.535156 2.023438 -9.4375 2.046875 -9.3125 C 2.085938 -9.03125 2.109375 -8.785156 2.109375 -8.578125 C 2.109375 -8.285156 2.125 -8.078125 2.15625 -7.953125 C 2.195312 -7.828125 2.285156 -7.832031 2.421875 -7.96875 C 2.566406 -8.101562 2.800781 -8.382812 3.125 -8.8125 C 3.644531 -9.644531 4.296875 -10.347656 5.078125 -10.921875 C 5.429688 -11.191406 5.84375 -11.382812 6.3125 -11.5 C 6.789062 -11.613281 7.25 -11.628906 7.6875 -11.546875 C 8.15625 -11.421875 8.523438 -11.148438 8.796875 -10.734375 C 9.066406 -10.328125 9.269531 -9.859375 9.40625 -9.328125 C 9.539062 -8.796875 9.640625 -8.304688 9.703125 -7.859375 C 9.722656 -7.734375 9.742188 -7.628906 9.765625 -7.546875 C 9.867188 -6.941406 10.003906 -6.394531 10.171875 -5.90625 C 10.347656 -5.414062 10.632812 -5.03125 11.03125 -4.75 C 11.425781 -4.46875 12.003906 -4.359375 12.765625 -4.421875 C 14.410156 -4.546875 15.71875 -4.890625 16.6875 -5.453125 C 17.664062 -6.023438 18.488281 -6.628906 19.15625 -7.265625 C 19.257812 -7.347656 19.347656 -7.429688 19.421875 -7.515625 C 19.566406 -7.617188 19.691406 -7.722656 19.796875 -7.828125 C 20.046875 -8.085938 20.367188 -8.320312 20.765625 -8.53125 Z M 20.765625 -8.53125 "/></g></g><g transform="translate(87.199491, 112.469864)"><g><path d="M 20.078125 -29.03125 C 20.453125 -26.070312 20.390625 -23.3125 19.890625 -20.75 C 19.398438 -18.1875 18.519531 -15.765625 17.25 -13.484375 C 15.976562 -11.203125 14.367188 -8.984375 12.421875 -6.828125 C 12.242188 -6.648438 12.15625 -6.492188 12.15625 -6.359375 C 12.15625 -6.222656 12.242188 -6.050781 12.421875 -5.84375 C 12.816406 -5.3125 13.238281 -4.800781 13.6875 -4.3125 C 14.144531 -3.820312 14.675781 -3.410156 15.28125 -3.078125 C 15.726562 -2.585938 15.796875 -2.257812 15.484375 -2.09375 C 15.179688 -1.925781 14.609375 -2.019531 13.765625 -2.375 C 12.929688 -2.738281 11.96875 -3.5 10.875 -4.65625 C 10.664062 -4.914062 10.429688 -4.953125 10.171875 -4.765625 C 9.878906 -4.554688 9.585938 -4.359375 9.296875 -4.171875 C 9.035156 -3.984375 8.773438 -3.800781 8.515625 -3.625 C 7.648438 -3.019531 6.722656 -2.507812 5.734375 -2.09375 C 4.703125 -1.632812 3.617188 -1.457031 2.484375 -1.5625 C 0.722656 -1.769531 -0.179688 -2.75 -0.234375 -4.5 C -0.285156 -5.738281 -0.0351562 -6.847656 0.515625 -7.828125 C 1.066406 -8.816406 1.832031 -9.539062 2.8125 -10 C 3.789062 -10.46875 4.921875 -10.5625 6.203125 -10.28125 C 6.367188 -10.25 6.5625 -10.207031 6.78125 -10.15625 C 6.925781 -10.132812 7.101562 -10.09375 7.3125 -10.03125 C 7.164062 -10.320312 7.039062 -10.578125 6.9375 -10.796875 C 6.769531 -11.191406 6.617188 -11.535156 6.484375 -11.828125 C 5.640625 -13.585938 4.945312 -15.601562 4.40625 -17.875 C 3.863281 -20.144531 3.59375 -22.457031 3.59375 -24.8125 C 3.59375 -27.175781 3.988281 -29.378906 4.78125 -31.421875 C 5.582031 -33.472656 6.890625 -35.160156 8.703125 -36.484375 C 9.835938 -37.265625 11.023438 -37.6875 12.265625 -37.75 C 13.503906 -37.820312 14.664062 -37.554688 15.75 -36.953125 C 16.832031 -36.359375 17.726562 -35.457031 18.4375 -34.25 C 19.332031 -32.625 19.878906 -30.882812 20.078125 -29.03125 Z M 8.3125 -5.640625 C 8.570312 -5.835938 8.597656 -6.078125 8.390625 -6.359375 C 8.265625 -6.492188 8.132812 -6.640625 8 -6.796875 C 7.664062 -7.210938 7.285156 -7.640625 6.859375 -8.078125 C 6.429688 -8.515625 5.976562 -8.847656 5.5 -9.078125 C 5.03125 -9.316406 4.5625 -9.332031 4.09375 -9.125 C 3.445312 -8.8125 2.910156 -8.265625 2.484375 -7.484375 C 2.066406 -6.703125 1.816406 -5.894531 1.734375 -5.0625 C 1.660156 -4.238281 1.816406 -3.609375 2.203125 -3.171875 C 2.585938 -2.742188 3.269531 -2.710938 4.25 -3.078125 C 5.71875 -3.722656 7.070312 -4.578125 8.3125 -5.640625 Z M 11.4375 -8.734375 C 13.4375 -11.046875 14.921875 -13.332031 15.890625 -15.59375 C 16.859375 -17.851562 17.535156 -20.5 17.921875 -23.53125 C 18.003906 -24.269531 18.046875 -25.242188 18.046875 -26.453125 C 18.046875 -27.671875 17.929688 -28.929688 17.703125 -30.234375 C 17.484375 -31.535156 17.109375 -32.722656 16.578125 -33.796875 C 16.046875 -34.867188 15.296875 -35.640625 14.328125 -36.109375 C 13.367188 -36.585938 12.144531 -36.585938 10.65625 -36.109375 C 8.988281 -35.160156 7.757812 -33.878906 6.96875 -32.265625 C 6.1875 -30.660156 5.738281 -28.875 5.625 -26.90625 C 5.507812 -24.945312 5.640625 -22.941406 6.015625 -20.890625 C 6.390625 -18.847656 6.90625 -16.910156 7.5625 -15.078125 C 8.21875 -13.242188 8.921875 -11.644531 9.671875 -10.28125 C 9.773438 -10.113281 9.863281 -9.945312 9.9375 -9.78125 C 10.175781 -9.238281 10.507812 -8.742188 10.9375 -8.296875 C 11 -8.335938 11.0625 -8.378906 11.125 -8.421875 C 11.25 -8.492188 11.351562 -8.597656 11.4375 -8.734375 Z M 11.4375 -8.734375 "/></g></g><g transform="translate(104.449755, 112.469864)"><g><path d="M 8.984375 -6.75 C 9.160156 -7.113281 9.28125 -7.28125 9.34375 -7.25 C 9.414062 -7.226562 9.4375 -7.082031 9.40625 -6.8125 C 9.375 -6.539062 9.3125 -6.238281 9.21875 -5.90625 C 9.101562 -5.382812 8.894531 -4.78125 8.59375 -4.09375 C 8.289062 -3.414062 7.957031 -2.800781 7.59375 -2.25 C 7.050781 -1.476562 6.375 -0.894531 5.5625 -0.5 C 4.757812 -0.113281 4.03125 -0.0195312 3.375 -0.21875 C 2.726562 -0.414062 2.351562 -1.035156 2.25 -2.078125 C 2.226562 -2.929688 2.304688 -3.878906 2.484375 -4.921875 C 2.535156 -5.347656 2.59375 -5.769531 2.65625 -6.1875 C 2.65625 -6.332031 2.617188 -6.441406 2.546875 -6.515625 C 2.472656 -6.597656 2.375 -6.632812 2.25 -6.625 C 2.164062 -6.625 2.070312 -6.625 1.96875 -6.625 C 1.457031 -6.539062 0.929688 -6.546875 0.390625 -6.640625 C -0.242188 -6.828125 -0.613281 -7.144531 -0.71875 -7.59375 C -0.820312 -8.039062 -0.8125 -8.628906 -0.6875 -9.359375 C -0.625 -9.867188 -0.429688 -10.253906 -0.109375 -10.515625 C 0.203125 -10.773438 0.578125 -10.878906 1.015625 -10.828125 C 1.617188 -10.773438 1.910156 -10.546875 1.890625 -10.140625 C 1.867188 -9.734375 1.753906 -9.300781 1.546875 -8.84375 C 1.359375 -8.457031 1.257812 -8.132812 1.25 -7.875 C 1.238281 -7.625 1.460938 -7.535156 1.921875 -7.609375 C 2.023438 -7.628906 2.132812 -7.660156 2.25 -7.703125 C 2.414062 -7.765625 2.609375 -7.820312 2.828125 -7.875 C 3.046875 -7.925781 3.328125 -7.941406 3.671875 -7.921875 C 4.085938 -7.898438 4.363281 -7.707031 4.5 -7.34375 C 4.632812 -6.976562 4.691406 -6.523438 4.671875 -5.984375 C 4.648438 -5.441406 4.597656 -4.890625 4.515625 -4.328125 C 4.410156 -3.617188 4.359375 -3.015625 4.359375 -2.515625 C 4.359375 -2.015625 4.503906 -1.722656 4.796875 -1.640625 C 5.179688 -1.535156 5.753906 -1.882812 6.515625 -2.6875 C 7.285156 -3.488281 8.109375 -4.84375 8.984375 -6.75 Z M 8.984375 -6.75 "/></g></g><g transform="translate(113.067846, 112.469864)"><g><path d="M 12.53125 -6.75 C 12.71875 -6.851562 12.90625 -6.929688 13.09375 -6.984375 C 13.28125 -7.035156 13.398438 -7.03125 13.453125 -6.96875 C 13.503906 -6.90625 13.425781 -6.75 13.21875 -6.5 C 12.550781 -5.75 11.769531 -5.066406 10.875 -4.453125 C 9.976562 -3.847656 9.066406 -3.332031 8.140625 -2.90625 C 7.398438 -2.570312 6.613281 -2.304688 5.78125 -2.109375 C 4.957031 -1.910156 4.140625 -1.867188 3.328125 -1.984375 C 2.523438 -2.097656 1.796875 -2.457031 1.140625 -3.0625 C 0.347656 -3.84375 -0.078125 -4.84375 -0.140625 -6.0625 C -0.210938 -7.28125 0.0664062 -8.300781 0.703125 -9.125 C 1.546875 -10.070312 2.613281 -10.679688 3.90625 -10.953125 C 5.195312 -11.222656 6.359375 -11.019531 7.390625 -10.34375 C 7.890625 -9.988281 8.09375 -9.578125 8 -9.109375 C 7.90625 -8.648438 7.65625 -8.21875 7.25 -7.8125 C 6.84375 -7.414062 6.394531 -7.113281 5.90625 -6.90625 C 5.15625 -6.613281 4.488281 -6.550781 3.90625 -6.71875 C 3.320312 -6.894531 2.863281 -7.128906 2.53125 -7.421875 C 2.300781 -7.335938 2.15625 -7.007812 2.09375 -6.4375 C 1.945312 -5.351562 2.285156 -4.472656 3.109375 -3.796875 C 3.796875 -3.285156 4.660156 -3.144531 5.703125 -3.375 C 6.742188 -3.613281 7.8125 -4.023438 8.90625 -4.609375 C 10 -5.203125 10.972656 -5.769531 11.828125 -6.3125 C 12.085938 -6.445312 12.320312 -6.59375 12.53125 -6.75 Z M 5.6875 -9.46875 C 5.5625 -9.632812 5.359375 -9.703125 5.078125 -9.671875 C 4.796875 -9.640625 4.507812 -9.550781 4.21875 -9.40625 C 3.925781 -9.269531 3.664062 -9.125 3.4375 -8.96875 C 3.21875 -8.8125 3.125 -8.703125 3.15625 -8.640625 C 3.15625 -8.597656 3.179688 -8.53125 3.234375 -8.4375 C 3.285156 -8.34375 3.363281 -8.242188 3.46875 -8.140625 C 3.570312 -8.035156 3.707031 -7.960938 3.875 -7.921875 C 4.050781 -7.878906 4.273438 -7.890625 4.546875 -7.953125 C 4.984375 -8.078125 5.285156 -8.238281 5.453125 -8.4375 C 5.628906 -8.632812 5.726562 -8.828125 5.75 -9.015625 C 5.769531 -9.210938 5.75 -9.363281 5.6875 -9.46875 Z M 5.6875 -9.46875 "/></g></g><g transform="translate(124.995171, 112.469864)"><g><path d="M 4.15625 -5.125 C 4.476562 -4.707031 4.6875 -4.28125 4.78125 -3.84375 C 4.875 -3.40625 4.910156 -2.925781 4.890625 -2.40625 C 4.867188 -1.894531 4.703125 -1.4375 4.390625 -1.03125 C 4.078125 -0.625 3.5625 -0.378906 2.84375 -0.296875 C 2.125 -0.242188 1.476562 -0.351562 0.90625 -0.625 C 0.34375 -0.90625 -0.0078125 -1.304688 -0.15625 -1.828125 C -0.300781 -2.359375 -0.128906 -2.972656 0.359375 -3.671875 C 0.691406 -4.066406 1.085938 -4.410156 1.546875 -4.703125 C 1.703125 -4.804688 1.867188 -4.921875 2.046875 -5.046875 C 1.492188 -5.640625 0.96875 -6.25 0.46875 -6.875 C -0.03125 -7.507812 -0.351562 -8.078125 -0.5 -8.578125 C -0.644531 -9.148438 -0.546875 -9.6875 -0.203125 -10.1875 C 0.140625 -10.695312 0.734375 -10.992188 1.578125 -11.078125 C 1.992188 -11.117188 2.378906 -11.097656 2.734375 -11.015625 C 3.097656 -10.941406 3.4375 -10.769531 3.75 -10.5 C 3.8125 -10.425781 3.851562 -10.347656 3.875 -10.265625 C 3.90625 -10.191406 3.894531 -10.09375 3.84375 -9.96875 C 3.738281 -9.78125 3.582031 -9.6875 3.375 -9.6875 C 3.226562 -9.6875 3.082031 -9.707031 2.9375 -9.75 C 2.789062 -9.8125 2.65625 -9.867188 2.53125 -9.921875 C 2.445312 -9.972656 2.367188 -10.019531 2.296875 -10.0625 C 2.023438 -10.15625 1.816406 -10.132812 1.671875 -10 C 1.523438 -9.875 1.453125 -9.675781 1.453125 -9.40625 C 1.472656 -8.925781 1.671875 -8.414062 2.046875 -7.875 C 2.421875 -7.332031 2.789062 -6.828125 3.15625 -6.359375 C 3.300781 -6.203125 3.425781 -6.050781 3.53125 -5.90625 C 3.632812 -5.800781 3.84375 -5.539062 4.15625 -5.125 Z M 2.25 -1.359375 C 2.519531 -1.367188 2.695312 -1.515625 2.78125 -1.796875 C 2.875 -2.078125 2.90625 -2.382812 2.875 -2.71875 C 2.851562 -3.0625 2.832031 -3.320312 2.8125 -3.5 C 2.78125 -3.59375 2.71875 -3.65625 2.625 -3.6875 C 2.53125 -3.71875 2.441406 -3.710938 2.359375 -3.671875 C 2.046875 -3.429688 1.816406 -3.125 1.671875 -2.75 C 1.523438 -2.375 1.535156 -2.046875 1.703125 -1.765625 C 1.753906 -1.660156 1.828125 -1.566406 1.921875 -1.484375 C 2.023438 -1.410156 2.132812 -1.367188 2.25 -1.359375 Z M 2.25 -1.359375 "/></g></g><g transform="translate(131.163021, 112.469864)"><g><path d="M 4.15625 -5.125 C 4.476562 -4.707031 4.6875 -4.28125 4.78125 -3.84375 C 4.875 -3.40625 4.910156 -2.925781 4.890625 -2.40625 C 4.867188 -1.894531 4.703125 -1.4375 4.390625 -1.03125 C 4.078125 -0.625 3.5625 -0.378906 2.84375 -0.296875 C 2.125 -0.242188 1.476562 -0.351562 0.90625 -0.625 C 0.34375 -0.90625 -0.0078125 -1.304688 -0.15625 -1.828125 C -0.300781 -2.359375 -0.128906 -2.972656 0.359375 -3.671875 C 0.691406 -4.066406 1.085938 -4.410156 1.546875 -4.703125 C 1.703125 -4.804688 1.867188 -4.921875 2.046875 -5.046875 C 1.492188 -5.640625 0.96875 -6.25 0.46875 -6.875 C -0.03125 -7.507812 -0.351562 -8.078125 -0.5 -8.578125 C -0.644531 -9.148438 -0.546875 -9.6875 -0.203125 -10.1875 C 0.140625 -10.695312 0.734375 -10.992188 1.578125 -11.078125 C 1.992188 -11.117188 2.378906 -11.097656 2.734375 -11.015625 C 3.097656 -10.941406 3.4375 -10.769531 3.75 -10.5 C 3.8125 -10.425781 3.851562 -10.347656 3.875 -10.265625 C 3.90625 -10.191406 3.894531 -10.09375 3.84375 -9.96875 C 3.738281 -9.78125 3.582031 -9.6875 3.375 -9.6875 C 3.226562 -9.6875 3.082031 -9.707031 2.9375 -9.75 C 2.789062 -9.8125 2.65625 -9.867188 2.53125 -9.921875 C 2.445312 -9.972656 2.367188 -10.019531 2.296875 -10.0625 C 2.023438 -10.15625 1.816406 -10.132812 1.671875 -10 C 1.523438 -9.875 1.453125 -9.675781 1.453125 -9.40625 C 1.472656 -8.925781 1.671875 -8.414062 2.046875 -7.875 C 2.421875 -7.332031 2.789062 -6.828125 3.15625 -6.359375 C 3.300781 -6.203125 3.425781 -6.050781 3.53125 -5.90625 C 3.632812 -5.800781 3.84375 -5.539062 4.15625 -5.125 Z M 2.25 -1.359375 C 2.519531 -1.367188 2.695312 -1.515625 2.78125 -1.796875 C 2.875 -2.078125 2.90625 -2.382812 2.875 -2.71875 C 2.851562 -3.0625 2.832031 -3.320312 2.8125 -3.5 C 2.78125 -3.59375 2.71875 -3.65625 2.625 -3.6875 C 2.53125 -3.71875 2.441406 -3.710938 2.359375 -3.671875 C 2.046875 -3.429688 1.816406 -3.125 1.671875 -2.75 C 1.523438 -2.375 1.535156 -2.046875 1.703125 -1.765625 C 1.753906 -1.660156 1.828125 -1.566406 1.921875 -1.484375 C 2.023438 -1.410156 2.132812 -1.367188 2.25 -1.359375 Z M 2.25 -1.359375 "/></g></g><g transform="translate(137.33087, 112.469864)"><g><path d="M 20.8125 -8.140625 C 20.976562 -8.367188 21.15625 -8.53125 21.34375 -8.625 C 21.539062 -8.726562 21.65625 -8.726562 21.6875 -8.625 C 21.726562 -8.53125 21.625 -8.285156 21.375 -7.890625 C 20.820312 -7.054688 20.007812 -6.269531 18.9375 -5.53125 C 17.863281 -4.789062 16.675781 -4.15625 15.375 -3.625 C 14.070312 -3.101562 12.800781 -2.757812 11.5625 -2.59375 C 10.320312 -2.425781 9.269531 -2.507812 8.40625 -2.84375 C 7.550781 -3.175781 7.019531 -3.820312 6.8125 -4.78125 C 6.09375 -3.613281 5.238281 -2.695312 4.25 -2.03125 C 3.257812 -1.375 2.316406 -1.097656 1.421875 -1.203125 C 0.410156 -1.335938 -0.257812 -1.710938 -0.59375 -2.328125 C -0.9375 -2.953125 -1.050781 -3.664062 -0.9375 -4.46875 C -0.832031 -5.28125 -0.59375 -6.050781 -0.21875 -6.78125 C 0.0703125 -7.332031 0.472656 -7.847656 0.984375 -8.328125 C 1.503906 -8.804688 2.046875 -9.175781 2.609375 -9.4375 C 3.304688 -9.789062 4.007812 -9.953125 4.71875 -9.921875 C 5.425781 -9.890625 6.1875 -9.65625 7 -9.21875 C 7 -9.21875 7.007812 -9.238281 7.03125 -9.28125 C 7.03125 -9.363281 7.046875 -9.460938 7.078125 -9.578125 C 7.109375 -9.691406 7.175781 -9.789062 7.28125 -9.875 C 7.425781 -9.976562 7.609375 -10.054688 7.828125 -10.109375 C 8.046875 -10.171875 8.257812 -10.1875 8.46875 -10.15625 C 8.789062 -10.09375 8.992188 -9.925781 9.078125 -9.65625 C 9.160156 -9.382812 9.175781 -9.085938 9.125 -8.765625 C 9.070312 -8.453125 9.015625 -8.179688 8.953125 -7.953125 C 8.929688 -7.910156 8.921875 -7.867188 8.921875 -7.828125 C 8.585938 -6.460938 8.710938 -5.503906 9.296875 -4.953125 C 9.878906 -4.410156 10.722656 -4.160156 11.828125 -4.203125 C 12.929688 -4.242188 14.101562 -4.472656 15.34375 -4.890625 C 16.582031 -5.316406 17.707031 -5.820312 18.71875 -6.40625 C 19.726562 -7 20.425781 -7.578125 20.8125 -8.140625 Z M 1.828125 -3.03125 C 2.265625 -2.738281 2.726562 -2.765625 3.21875 -3.109375 C 3.71875 -3.460938 4.203125 -3.972656 4.671875 -4.640625 C 5.148438 -5.304688 5.546875 -5.96875 5.859375 -6.625 C 6.171875 -7.28125 6.34375 -7.773438 6.375 -8.109375 C 5.394531 -8.648438 4.550781 -8.75 3.84375 -8.40625 C 3.132812 -8.0625 2.582031 -7.515625 2.1875 -6.765625 C 1.800781 -6.015625 1.578125 -5.269531 1.515625 -4.53125 C 1.453125 -3.789062 1.554688 -3.289062 1.828125 -3.03125 Z M 1.828125 -3.03125 "/></g></g><g transform="translate(157.467913, 112.469864)"><g/></g><g transform="translate(164.621492, 112.469864)"><g><path d="M -0.125 14.8125 L -0.21875 14.921875 C -0.832031 15.328125 -1.0625 14.425781 -0.90625 12.21875 C -0.300781 4.289062 -0.0078125 -3.617188 -0.03125 -11.515625 L -0.03125 -19.046875 C -0.03125 -22.765625 -0.0195312 -26.484375 0 -30.203125 C -0.0390625 -32.347656 0.144531 -34.503906 0.5625 -36.671875 C 0.6875 -37.460938 0.960938 -38.195312 1.390625 -38.875 C 1.648438 -39.25 1.960938 -39.503906 2.328125 -39.640625 C 2.597656 -39.816406 2.914062 -39.910156 3.28125 -39.921875 C 3.96875 -39.921875 4.601562 -39.769531 5.1875 -39.46875 C 6.25 -38.84375 7.207031 -38.085938 8.0625 -37.203125 C 10.019531 -35.203125 11.742188 -33.003906 13.234375 -30.609375 C 16.078125 -26.148438 18.484375 -21.476562 20.453125 -16.59375 C 22.429688 -11.71875 24.003906 -6.65625 25.171875 -1.40625 L 25.171875 -1.375 C 25.222656 -1.007812 25.332031 -0.660156 25.5 -0.328125 C 25.519531 -0.660156 25.53125 -0.992188 25.53125 -1.328125 C 25.59375 -2.910156 25.644531 -4.488281 25.6875 -6.0625 C 25.75 -8.082031 25.820312 -10.109375 25.90625 -12.140625 C 26.070312 -17.335938 26.132812 -22.539062 26.09375 -27.75 C 26.050781 -31.15625 26.15625 -34.578125 26.40625 -38.015625 C 26.445312 -38.546875 26.507812 -39.082031 26.59375 -39.625 C 26.644531 -39.84375 26.773438 -39.984375 26.984375 -40.046875 C 27.015625 -40.066406 27.054688 -40.078125 27.109375 -40.078125 C 27.171875 -40.148438 27.253906 -40.203125 27.359375 -40.234375 C 27.546875 -40.304688 27.742188 -40.273438 27.953125 -40.140625 C 28.265625 -39.929688 28.421875 -39.632812 28.421875 -39.25 L 28.421875 -38.90625 C 28.421875 -38.4375 28.40625 -37.953125 28.375 -37.453125 C 28.21875 -34.429688 28.148438 -31.414062 28.171875 -28.40625 L 28.171875 -23.625 C 28.191406 -19.5 28.117188 -15.367188 27.953125 -11.234375 C 27.890625 -9.671875 27.828125 -8.113281 27.765625 -6.5625 C 27.742188 -5.394531 27.703125 -4.242188 27.640625 -3.109375 C 27.492188 0.609375 27.34375 4.328125 27.1875 8.046875 C 27.15625 8.578125 27.101562 9.109375 27.03125 9.640625 C 26.976562 9.867188 26.859375 10.023438 26.671875 10.109375 L 26.484375 10.171875 L 26.3125 10.296875 C 26.101562 10.378906 25.894531 10.378906 25.6875 10.296875 C 25.269531 10.109375 25.019531 9.796875 24.9375 9.359375 C 24.9375 9.253906 24.929688 9.15625 24.921875 9.0625 C 24.828125 8.59375 24.738281 8.109375 24.65625 7.609375 C 23.519531 -1.703125 21.066406 -10.59375 17.296875 -19.0625 C 16.160156 -21.613281 14.914062 -24.097656 13.5625 -26.515625 C 12.207031 -28.929688 10.679688 -31.253906 8.984375 -33.484375 C 7.992188 -34.847656 6.859375 -36.085938 5.578125 -37.203125 C 5.179688 -37.554688 4.75 -37.851562 4.28125 -38.09375 C 4.132812 -38.175781 3.976562 -38.210938 3.8125 -38.203125 C 3.726562 -38.109375 3.65625 -38.007812 3.59375 -37.90625 C 3.382812 -37.519531 3.234375 -37.117188 3.140625 -36.703125 C 3.054688 -36.285156 2.988281 -35.875 2.9375 -35.46875 C 2.78125 -33.9375 2.679688 -32.410156 2.640625 -30.890625 C 2.597656 -29.378906 2.585938 -27.859375 2.609375 -26.328125 L 2.609375 -24.84375 C 2.585938 -23 2.585938 -21.160156 2.609375 -19.328125 C 2.628906 -16.015625 2.617188 -12.707031 2.578125 -9.40625 C 2.515625 -4.207031 2.253906 1.003906 1.796875 6.234375 C 1.304688 11.484375 0.757812 14.316406 0.15625 14.734375 C 0.0507812 14.785156 -0.0390625 14.8125 -0.125 14.8125 Z M -0.125 14.8125 "/></g></g><g transform="translate(195.305839, 112.469864)"><g><path d="M 20.8125 -8.140625 C 20.976562 -8.367188 21.15625 -8.53125 21.34375 -8.625 C 21.539062 -8.726562 21.65625 -8.726562 21.6875 -8.625 C 21.726562 -8.53125 21.625 -8.285156 21.375 -7.890625 C 20.820312 -7.054688 20.007812 -6.269531 18.9375 -5.53125 C 17.863281 -4.789062 16.675781 -4.15625 15.375 -3.625 C 14.070312 -3.101562 12.800781 -2.757812 11.5625 -2.59375 C 10.320312 -2.425781 9.269531 -2.507812 8.40625 -2.84375 C 7.550781 -3.175781 7.019531 -3.820312 6.8125 -4.78125 C 6.09375 -3.613281 5.238281 -2.695312 4.25 -2.03125 C 3.257812 -1.375 2.316406 -1.097656 1.421875 -1.203125 C 0.410156 -1.335938 -0.257812 -1.710938 -0.59375 -2.328125 C -0.9375 -2.953125 -1.050781 -3.664062 -0.9375 -4.46875 C -0.832031 -5.28125 -0.59375 -6.050781 -0.21875 -6.78125 C 0.0703125 -7.332031 0.472656 -7.847656 0.984375 -8.328125 C 1.503906 -8.804688 2.046875 -9.175781 2.609375 -9.4375 C 3.304688 -9.789062 4.007812 -9.953125 4.71875 -9.921875 C 5.425781 -9.890625 6.1875 -9.65625 7 -9.21875 C 7 -9.21875 7.007812 -9.238281 7.03125 -9.28125 C 7.03125 -9.363281 7.046875 -9.460938 7.078125 -9.578125 C 7.109375 -9.691406 7.175781 -9.789062 7.28125 -9.875 C 7.425781 -9.976562 7.609375 -10.054688 7.828125 -10.109375 C 8.046875 -10.171875 8.257812 -10.1875 8.46875 -10.15625 C 8.789062 -10.09375 8.992188 -9.925781 9.078125 -9.65625 C 9.160156 -9.382812 9.175781 -9.085938 9.125 -8.765625 C 9.070312 -8.453125 9.015625 -8.179688 8.953125 -7.953125 C 8.929688 -7.910156 8.921875 -7.867188 8.921875 -7.828125 C 8.585938 -6.460938 8.710938 -5.503906 9.296875 -4.953125 C 9.878906 -4.410156 10.722656 -4.160156 11.828125 -4.203125 C 12.929688 -4.242188 14.101562 -4.472656 15.34375 -4.890625 C 16.582031 -5.316406 17.707031 -5.820312 18.71875 -6.40625 C 19.726562 -7 20.425781 -7.578125 20.8125 -8.140625 Z M 1.828125 -3.03125 C 2.265625 -2.738281 2.726562 -2.765625 3.21875 -3.109375 C 3.71875 -3.460938 4.203125 -3.972656 4.671875 -4.640625 C 5.148438 -5.304688 5.546875 -5.96875 5.859375 -6.625 C 6.171875 -7.28125 6.34375 -7.773438 6.375 -8.109375 C 5.394531 -8.648438 4.550781 -8.75 3.84375 -8.40625 C 3.132812 -8.0625 2.582031 -7.515625 2.1875 -6.765625 C 1.800781 -6.015625 1.578125 -5.269531 1.515625 -4.53125 C 1.453125 -3.789062 1.554688 -3.289062 1.828125 -3.03125 Z M 1.828125 -3.03125 "/></g></g><g transform="translate(215.442882, 112.469864)"><g><path d="M 10.40625 -7.359375 C 11.113281 -7.546875 11.398438 -7.535156 11.265625 -7.328125 C 11.128906 -7.128906 10.671875 -6.925781 9.890625 -6.71875 C 9.304688 -6.570312 8.800781 -6.5 8.375 -6.5 C 7.957031 -6.5 7.570312 -6.632812 7.21875 -6.90625 C 7.132812 -6.613281 7.050781 -6.332031 6.96875 -6.0625 C 6.800781 -5.5 6.640625 -4.972656 6.484375 -4.484375 C 6.273438 -3.753906 5.972656 -3.070312 5.578125 -2.4375 C 5.242188 -1.90625 4.804688 -1.546875 4.265625 -1.359375 C 3.734375 -1.171875 3.207031 -1.171875 2.6875 -1.359375 C 2.175781 -1.554688 1.753906 -1.957031 1.421875 -2.5625 C 1.003906 -3.425781 0.726562 -4.332031 0.59375 -5.28125 C 0.28125 -6.6875 0.09375 -8.113281 0.03125 -9.5625 C 0.0078125 -9.894531 0.0195312 -10.210938 0.0625 -10.515625 C 0.125 -10.929688 0.378906 -11.140625 0.828125 -11.140625 C 1.171875 -11.117188 1.375 -10.914062 1.4375 -10.53125 C 1.507812 -10.15625 1.546875 -9.769531 1.546875 -9.375 C 1.546875 -9.226562 1.554688 -9.101562 1.578125 -9 C 1.578125 -8.851562 1.625 -8.382812 1.71875 -7.59375 C 1.8125 -6.800781 1.953125 -5.953125 2.140625 -5.046875 C 2.328125 -4.148438 2.550781 -3.460938 2.8125 -2.984375 C 3.082031 -2.515625 3.40625 -2.53125 3.78125 -3.03125 C 4.132812 -3.5625 4.378906 -4.140625 4.515625 -4.765625 C 4.878906 -6.003906 5.210938 -7.242188 5.515625 -8.484375 C 5.640625 -9.066406 5.875 -9.59375 6.21875 -10.0625 C 6.59375 -10.519531 7.082031 -10.628906 7.6875 -10.390625 C 7.832031 -10.359375 7.945312 -10.289062 8.03125 -10.1875 C 8.113281 -10.082031 8.140625 -9.96875 8.109375 -9.84375 C 8.085938 -9.695312 8.0625 -9.539062 8.03125 -9.375 C 7.925781 -9.070312 7.847656 -8.765625 7.796875 -8.453125 C 7.742188 -8.140625 7.757812 -7.898438 7.84375 -7.734375 C 7.988281 -7.523438 8.328125 -7.378906 8.859375 -7.296875 C 9.390625 -7.222656 9.90625 -7.242188 10.40625 -7.359375 Z M 10.40625 -7.359375 "/></g></g><g transform="translate(225.877531, 112.469864)"><g><path d="M 20.8125 -8.140625 C 20.976562 -8.367188 21.15625 -8.53125 21.34375 -8.625 C 21.539062 -8.726562 21.65625 -8.726562 21.6875 -8.625 C 21.726562 -8.53125 21.625 -8.285156 21.375 -7.890625 C 20.820312 -7.054688 20.007812 -6.269531 18.9375 -5.53125 C 17.863281 -4.789062 16.675781 -4.15625 15.375 -3.625 C 14.070312 -3.101562 12.800781 -2.757812 11.5625 -2.59375 C 10.320312 -2.425781 9.269531 -2.507812 8.40625 -2.84375 C 7.550781 -3.175781 7.019531 -3.820312 6.8125 -4.78125 C 6.09375 -3.613281 5.238281 -2.695312 4.25 -2.03125 C 3.257812 -1.375 2.316406 -1.097656 1.421875 -1.203125 C 0.410156 -1.335938 -0.257812 -1.710938 -0.59375 -2.328125 C -0.9375 -2.953125 -1.050781 -3.664062 -0.9375 -4.46875 C -0.832031 -5.28125 -0.59375 -6.050781 -0.21875 -6.78125 C 0.0703125 -7.332031 0.472656 -7.847656 0.984375 -8.328125 C 1.503906 -8.804688 2.046875 -9.175781 2.609375 -9.4375 C 3.304688 -9.789062 4.007812 -9.953125 4.71875 -9.921875 C 5.425781 -9.890625 6.1875 -9.65625 7 -9.21875 C 7 -9.21875 7.007812 -9.238281 7.03125 -9.28125 C 7.03125 -9.363281 7.046875 -9.460938 7.078125 -9.578125 C 7.109375 -9.691406 7.175781 -9.789062 7.28125 -9.875 C 7.425781 -9.976562 7.609375 -10.054688 7.828125 -10.109375 C 8.046875 -10.171875 8.257812 -10.1875 8.46875 -10.15625 C 8.789062 -10.09375 8.992188 -9.925781 9.078125 -9.65625 C 9.160156 -9.382812 9.175781 -9.085938 9.125 -8.765625 C 9.070312 -8.453125 9.015625 -8.179688 8.953125 -7.953125 C 8.929688 -7.910156 8.921875 -7.867188 8.921875 -7.828125 C 8.585938 -6.460938 8.710938 -5.503906 9.296875 -4.953125 C 9.878906 -4.410156 10.722656 -4.160156 11.828125 -4.203125 C 12.929688 -4.242188 14.101562 -4.472656 15.34375 -4.890625 C 16.582031 -5.316406 17.707031 -5.820312 18.71875 -6.40625 C 19.726562 -7 20.425781 -7.578125 20.8125 -8.140625 Z M 1.828125 -3.03125 C 2.265625 -2.738281 2.726562 -2.765625 3.21875 -3.109375 C 3.71875 -3.460938 4.203125 -3.972656 4.671875 -4.640625 C 5.148438 -5.304688 5.546875 -5.96875 5.859375 -6.625 C 6.171875 -7.28125 6.34375 -7.773438 6.375 -8.109375 C 5.394531 -8.648438 4.550781 -8.75 3.84375 -8.40625 C 3.132812 -8.0625 2.582031 -7.515625 2.1875 -6.765625 C 1.800781 -6.015625 1.578125 -5.269531 1.515625 -4.53125 C 1.453125 -3.789062 1.554688 -3.289062 1.828125 -3.03125 Z M 1.828125 -3.03125 "/></g></g><g transform="translate(246.014574, 112.469864)"><g><path d="M 8.984375 -6.75 C 9.160156 -7.113281 9.28125 -7.28125 9.34375 -7.25 C 9.414062 -7.226562 9.4375 -7.082031 9.40625 -6.8125 C 9.375 -6.539062 9.3125 -6.238281 9.21875 -5.90625 C 9.101562 -5.382812 8.894531 -4.78125 8.59375 -4.09375 C 8.289062 -3.414062 7.957031 -2.800781 7.59375 -2.25 C 7.050781 -1.476562 6.375 -0.894531 5.5625 -0.5 C 4.757812 -0.113281 4.03125 -0.0195312 3.375 -0.21875 C 2.726562 -0.414062 2.351562 -1.035156 2.25 -2.078125 C 2.226562 -2.929688 2.304688 -3.878906 2.484375 -4.921875 C 2.535156 -5.347656 2.59375 -5.769531 2.65625 -6.1875 C 2.65625 -6.332031 2.617188 -6.441406 2.546875 -6.515625 C 2.472656 -6.597656 2.375 -6.632812 2.25 -6.625 C 2.164062 -6.625 2.070312 -6.625 1.96875 -6.625 C 1.457031 -6.539062 0.929688 -6.546875 0.390625 -6.640625 C -0.242188 -6.828125 -0.613281 -7.144531 -0.71875 -7.59375 C -0.820312 -8.039062 -0.8125 -8.628906 -0.6875 -9.359375 C -0.625 -9.867188 -0.429688 -10.253906 -0.109375 -10.515625 C 0.203125 -10.773438 0.578125 -10.878906 1.015625 -10.828125 C 1.617188 -10.773438 1.910156 -10.546875 1.890625 -10.140625 C 1.867188 -9.734375 1.753906 -9.300781 1.546875 -8.84375 C 1.359375 -8.457031 1.257812 -8.132812 1.25 -7.875 C 1.238281 -7.625 1.460938 -7.535156 1.921875 -7.609375 C 2.023438 -7.628906 2.132812 -7.660156 2.25 -7.703125 C 2.414062 -7.765625 2.609375 -7.820312 2.828125 -7.875 C 3.046875 -7.925781 3.328125 -7.941406 3.671875 -7.921875 C 4.085938 -7.898438 4.363281 -7.707031 4.5 -7.34375 C 4.632812 -6.976562 4.691406 -6.523438 4.671875 -5.984375 C 4.648438 -5.441406 4.597656 -4.890625 4.515625 -4.328125 C 4.410156 -3.617188 4.359375 -3.015625 4.359375 -2.515625 C 4.359375 -2.015625 4.503906 -1.722656 4.796875 -1.640625 C 5.179688 -1.535156 5.753906 -1.882812 6.515625 -2.6875 C 7.285156 -3.488281 8.109375 -4.84375 8.984375 -6.75 Z M 8.984375 -6.75 "/></g></g><g transform="translate(254.632665, 112.469864)"><g><path d="M 8.984375 -6.75 C 9.160156 -7.113281 9.28125 -7.28125 9.34375 -7.25 C 9.414062 -7.226562 9.4375 -7.082031 9.40625 -6.8125 C 9.375 -6.539062 9.3125 -6.238281 9.21875 -5.90625 C 9.101562 -5.382812 8.894531 -4.78125 8.59375 -4.09375 C 8.289062 -3.414062 7.957031 -2.800781 7.59375 -2.25 C 7.050781 -1.476562 6.375 -0.894531 5.5625 -0.5 C 4.757812 -0.113281 4.03125 -0.0195312 3.375 -0.21875 C 2.726562 -0.414062 2.351562 -1.035156 2.25 -2.078125 C 2.226562 -2.929688 2.304688 -3.878906 2.484375 -4.921875 C 2.535156 -5.347656 2.59375 -5.769531 2.65625 -6.1875 C 2.65625 -6.332031 2.617188 -6.441406 2.546875 -6.515625 C 2.472656 -6.597656 2.375 -6.632812 2.25 -6.625 C 2.164062 -6.625 2.070312 -6.625 1.96875 -6.625 C 1.457031 -6.539062 0.929688 -6.546875 0.390625 -6.640625 C -0.242188 -6.828125 -0.613281 -7.144531 -0.71875 -7.59375 C -0.820312 -8.039062 -0.8125 -8.628906 -0.6875 -9.359375 C -0.625 -9.867188 -0.429688 -10.253906 -0.109375 -10.515625 C 0.203125 -10.773438 0.578125 -10.878906 1.015625 -10.828125 C 1.617188 -10.773438 1.910156 -10.546875 1.890625 -10.140625 C 1.867188 -9.734375 1.753906 -9.300781 1.546875 -8.84375 C 1.359375 -8.457031 1.257812 -8.132812 1.25 -7.875 C 1.238281 -7.625 1.460938 -7.535156 1.921875 -7.609375 C 2.023438 -7.628906 2.132812 -7.660156 2.25 -7.703125 C 2.414062 -7.765625 2.609375 -7.820312 2.828125 -7.875 C 3.046875 -7.925781 3.328125 -7.941406 3.671875 -7.921875 C 4.085938 -7.898438 4.363281 -7.707031 4.5 -7.34375 C 4.632812 -6.976562 4.691406 -6.523438 4.671875 -5.984375 C 4.648438 -5.441406 4.597656 -4.890625 4.515625 -4.328125 C 4.410156 -3.617188 4.359375 -3.015625 4.359375 -2.515625 C 4.359375 -2.015625 4.503906 -1.722656 4.796875 -1.640625 C 5.179688 -1.535156 5.753906 -1.882812 6.515625 -2.6875 C 7.285156 -3.488281 8.109375 -4.84375 8.984375 -6.75 Z M 8.984375 -6.75 "/></g></g><g transform="translate(263.250756, 112.469864)"><g><path d="M 3.625 -10.3125 C 4.84375 -10.363281 5.679688 -9.796875 6.140625 -8.609375 C 6.472656 -7.734375 6.566406 -6.800781 6.421875 -5.8125 C 6.273438 -4.820312 5.941406 -4 5.421875 -3.34375 C 4.921875 -2.738281 4.3125 -2.347656 3.59375 -2.171875 C 2.882812 -2.003906 2.191406 -2.0625 1.515625 -2.34375 C 0.835938 -2.632812 0.300781 -3.203125 -0.09375 -4.046875 C -0.40625 -4.796875 -0.507812 -5.550781 -0.40625 -6.3125 C -0.320312 -6.945312 -0.144531 -7.566406 0.125 -8.171875 C 0.4375 -8.910156 0.894531 -9.445312 1.5 -9.78125 C 2.113281 -10.113281 2.820312 -10.289062 3.625 -10.3125 Z M 3.0625 -3.1875 C 3.582031 -3.488281 3.953125 -3.929688 4.171875 -4.515625 C 4.398438 -5.109375 4.523438 -5.738281 4.546875 -6.40625 C 4.578125 -7.082031 4.523438 -7.710938 4.390625 -8.296875 C 4.210938 -9.097656 3.972656 -9.492188 3.671875 -9.484375 C 3.367188 -9.472656 3.054688 -9.203125 2.734375 -8.671875 C 2.421875 -8.148438 2.144531 -7.515625 1.90625 -6.765625 C 1.664062 -6.023438 1.519531 -5.316406 1.46875 -4.640625 C 1.414062 -3.960938 1.507812 -3.46875 1.75 -3.15625 C 1.988281 -2.84375 2.425781 -2.851562 3.0625 -3.1875 Z M 3.0625 -3.1875 "/></g></g></g><g fill="#545454" fill-opacity="1"><g transform="translate(17.527319, 134.107077)"><g><path d="M 3.953125 -0.9375 L 4.046875 -0.109375 C 3.609375 0.0234375 3.070312 0.09375 2.4375 0.09375 C 1.664062 0.09375 1.125 -0.0976562 0.8125 -0.484375 C 0.5 -0.878906 0.34375 -1.550781 0.34375 -2.5 C 0.34375 -3.445312 0.5 -4.113281 0.8125 -4.5 C 1.125 -4.894531 1.664062 -5.09375 2.4375 -5.09375 C 3 -5.09375 3.5 -5.035156 3.9375 -4.921875 L 3.84375 -4.09375 C 3.457031 -4.113281 2.988281 -4.125 2.4375 -4.125 C 2.082031 -4.125 1.835938 -4.007812 1.703125 -3.78125 C 1.566406 -3.550781 1.5 -3.125 1.5 -2.5 C 1.5 -1.875 1.566406 -1.445312 1.703125 -1.21875 C 1.835938 -0.988281 2.082031 -0.875 2.4375 -0.875 C 3.113281 -0.875 3.617188 -0.894531 3.953125 -0.9375 Z M 3.953125 -0.9375 "/></g></g></g><g fill="#545454" fill-opacity="1"><g transform="translate(27.586353, 134.107077)"><g><path d="M 0.8125 -4.53125 C 1.125 -4.90625 1.679688 -5.09375 2.484375 -5.09375 C 3.285156 -5.09375 3.84375 -4.90625 4.15625 -4.53125 C 4.46875 -4.164062 4.625 -3.488281 4.625 -2.5 C 4.625 -1.507812 4.46875 -0.828125 4.15625 -0.453125 C 3.84375 -0.0859375 3.285156 0.09375 2.484375 0.09375 C 1.679688 0.09375 1.125 -0.0859375 0.8125 -0.453125 C 0.5 -0.828125 0.34375 -1.507812 0.34375 -2.5 C 0.34375 -3.488281 0.5 -4.164062 0.8125 -4.53125 Z M 3.25 -3.84375 C 3.113281 -4.082031 2.851562 -4.203125 2.46875 -4.203125 C 2.09375 -4.203125 1.835938 -4.082031 1.703125 -3.84375 C 1.566406 -3.613281 1.5 -3.164062 1.5 -2.5 C 1.5 -1.84375 1.566406 -1.394531 1.703125 -1.15625 C 1.835938 -0.914062 2.09375 -0.796875 2.46875 -0.796875 C 2.851562 -0.796875 3.113281 -0.914062 3.25 -1.15625 C 3.382812 -1.394531 3.453125 -1.84375 3.453125 -2.5 C 3.453125 -3.164062 3.382812 -3.613281 3.25 -3.84375 Z M 3.25 -3.84375 "/></g></g></g><g fill="#545454" fill-opacity="1"><g transform="translate(38.356637, 134.107077)"><g><path d="M 4.734375 -5 L 4.734375 -0.40625 C 4.734375 -0.132812 4.597656 0 4.328125 0 L 3.640625 0 C 3.535156 0 3.453125 -0.0234375 3.390625 -0.078125 C 3.328125 -0.128906 3.265625 -0.210938 3.203125 -0.328125 L 1.890625 -3 C 1.722656 -3.351562 1.625 -3.609375 1.59375 -3.765625 L 1.515625 -3.765625 C 1.546875 -3.523438 1.5625 -3.257812 1.5625 -2.96875 L 1.5625 0 L 0.5 0 L 0.5 -4.609375 C 0.5 -4.867188 0.632812 -5 0.90625 -5 L 1.578125 -5 C 1.691406 -5 1.78125 -4.972656 1.84375 -4.921875 C 1.90625 -4.867188 1.960938 -4.785156 2.015625 -4.671875 L 3.296875 -2.09375 C 3.410156 -1.84375 3.53125 -1.570312 3.65625 -1.28125 L 3.71875 -1.28125 C 3.695312 -1.65625 3.6875 -1.9375 3.6875 -2.125 L 3.6875 -5 Z M 4.734375 -5 "/></g></g></g><g fill="#545454" fill-opacity="1"><g transform="translate(49.402716, 134.107077)"><g><path d="M 2.359375 -1.890625 L 1.34375 -2.25 C 0.976562 -2.382812 0.710938 -2.566406 0.546875 -2.796875 C 0.390625 -3.023438 0.3125 -3.332031 0.3125 -3.71875 C 0.3125 -4.257812 0.441406 -4.625 0.703125 -4.8125 C 0.972656 -5 1.445312 -5.09375 2.125 -5.09375 C 2.769531 -5.09375 3.320312 -5.03125 3.78125 -4.90625 L 3.703125 -4.140625 C 3.285156 -4.160156 2.765625 -4.171875 2.140625 -4.171875 C 1.847656 -4.171875 1.648438 -4.144531 1.546875 -4.09375 C 1.453125 -4.039062 1.40625 -3.914062 1.40625 -3.71875 C 1.40625 -3.550781 1.441406 -3.429688 1.515625 -3.359375 C 1.585938 -3.285156 1.726562 -3.210938 1.9375 -3.140625 L 2.890625 -2.8125 C 3.273438 -2.6875 3.546875 -2.503906 3.703125 -2.265625 C 3.859375 -2.023438 3.9375 -1.71875 3.9375 -1.34375 C 3.9375 -0.78125 3.800781 -0.398438 3.53125 -0.203125 C 3.257812 -0.00390625 2.78125 0.09375 2.09375 0.09375 C 1.519531 0.09375 0.945312 0.03125 0.375 -0.09375 L 0.4375 -0.890625 C 1.46875 -0.867188 2.019531 -0.859375 2.09375 -0.859375 C 2.382812 -0.859375 2.578125 -0.890625 2.671875 -0.953125 C 2.773438 -1.015625 2.828125 -1.144531 2.828125 -1.34375 C 2.828125 -1.507812 2.789062 -1.628906 2.71875 -1.703125 C 2.65625 -1.773438 2.535156 -1.835938 2.359375 -1.890625 Z M 2.359375 -1.890625 "/></g></g></g><g fill="#545454" fill-opacity="1"><g transform="translate(59.432726, 134.107077)"><g><path d="M 4.46875 -5 L 4.46875 -2 C 4.46875 -1.226562 4.320312 -0.6875 4.03125 -0.375 C 3.738281 -0.0625 3.234375 0.09375 2.515625 0.09375 C 1.765625 0.09375 1.234375 -0.0625 0.921875 -0.375 C 0.617188 -0.6875 0.46875 -1.226562 0.46875 -2 L 0.46875 -5 L 1.578125 -5 L 1.578125 -2 C 1.578125 -1.539062 1.640625 -1.222656 1.765625 -1.046875 C 1.890625 -0.878906 2.125 -0.796875 2.46875 -0.796875 C 2.8125 -0.796875 3.046875 -0.878906 3.171875 -1.046875 C 3.296875 -1.222656 3.359375 -1.539062 3.359375 -2 L 3.359375 -5 Z M 4.46875 -5 "/></g></g></g><g fill="#545454" fill-opacity="1"><g transform="translate(70.181239, 134.107077)"><g><path d="M 1.59375 -5 L 1.59375 -1.265625 C 1.59375 -1.140625 1.625 -1.046875 1.6875 -0.984375 C 1.75 -0.929688 1.847656 -0.90625 1.984375 -0.90625 L 3.703125 -0.90625 L 3.75 -0.0625 C 3.257812 -0.0078125 2.554688 0.015625 1.640625 0.015625 C 1.253906 0.015625 0.96875 -0.078125 0.78125 -0.265625 C 0.59375 -0.460938 0.5 -0.722656 0.5 -1.046875 L 0.5 -5 Z M 1.59375 -5 "/></g></g></g><g fill="#545454" fill-opacity="1"><g transform="translate(79.848366, 134.107077)"><g><path d="M 4.234375 -4.109375 L 2.734375 -4.109375 L 2.734375 0 L 1.625 0 L 1.625 -4.109375 L 0.125 -4.109375 L 0.125 -5 L 4.234375 -5 Z M 4.234375 -4.109375 "/></g></g></g><g fill="#545454" fill-opacity="1"><g transform="translate(90.016268, 134.107077)"><g><path d="M 0.8125 -4.53125 C 1.125 -4.90625 1.679688 -5.09375 2.484375 -5.09375 C 3.285156 -5.09375 3.84375 -4.90625 4.15625 -4.53125 C 4.46875 -4.164062 4.625 -3.488281 4.625 -2.5 C 4.625 -1.507812 4.46875 -0.828125 4.15625 -0.453125 C 3.84375 -0.0859375 3.285156 0.09375 2.484375 0.09375 C 1.679688 0.09375 1.125 -0.0859375 0.8125 -0.453125 C 0.5 -0.828125 0.34375 -1.507812 0.34375 -2.5 C 0.34375 -3.488281 0.5 -4.164062 0.8125 -4.53125 Z M 3.25 -3.84375 C 3.113281 -4.082031 2.851562 -4.203125 2.46875 -4.203125 C 2.09375 -4.203125 1.835938 -4.082031 1.703125 -3.84375 C 1.566406 -3.613281 1.5 -3.164062 1.5 -2.5 C 1.5 -1.84375 1.566406 -1.394531 1.703125 -1.15625 C 1.835938 -0.914062 2.09375 -0.796875 2.46875 -0.796875 C 2.851562 -0.796875 3.113281 -0.914062 3.25 -1.15625 C 3.382812 -1.394531 3.453125 -1.84375 3.453125 -2.5 C 3.453125 -3.164062 3.382812 -3.613281 3.25 -3.84375 Z M 3.25 -3.84375 "/></g></g></g><g fill="#545454" fill-opacity="1"><g transform="translate(100.786556, 134.107077)"><g><path d="M 4.453125 0 L 3.28125 0 L 2.90625 -1.53125 C 2.851562 -1.6875 2.785156 -1.796875 2.703125 -1.859375 C 2.628906 -1.921875 2.519531 -1.953125 2.375 -1.953125 L 1.59375 -1.953125 L 1.59375 0 L 0.5 0 L 0.5 -5 C 0.957031 -5.039062 1.597656 -5.0625 2.421875 -5.0625 C 3.085938 -5.0625 3.5625 -4.957031 3.84375 -4.75 C 4.125 -4.539062 4.265625 -4.15625 4.265625 -3.59375 C 4.265625 -3.21875 4.191406 -2.925781 4.046875 -2.71875 C 3.898438 -2.519531 3.65625 -2.394531 3.3125 -2.34375 L 3.3125 -2.3125 C 3.6875 -2.226562 3.921875 -1.976562 4.015625 -1.5625 Z M 1.59375 -2.8125 L 2.390625 -2.8125 C 2.679688 -2.8125 2.878906 -2.859375 2.984375 -2.953125 C 3.085938 -3.054688 3.140625 -3.242188 3.140625 -3.515625 C 3.140625 -3.785156 3.085938 -3.96875 2.984375 -4.0625 C 2.878906 -4.164062 2.679688 -4.21875 2.390625 -4.21875 L 1.59375 -4.21875 Z M 1.59375 -2.8125 "/></g></g></g><g fill="#545454" fill-opacity="1"><g transform="translate(111.259279, 134.107077)"><g><path d="M 3.21875 -1.3125 L 1.5 -1.3125 L 1.140625 0 L 0 0 L 1.453125 -4.71875 C 1.472656 -4.800781 1.519531 -4.867188 1.59375 -4.921875 C 1.664062 -4.972656 1.742188 -5 1.828125 -5 L 2.875 -5 C 3.082031 -5 3.210938 -4.90625 3.265625 -4.71875 L 4.703125 0 L 3.578125 0 Z M 2.984375 -2.171875 L 2.5625 -3.703125 C 2.5 -3.941406 2.460938 -4.097656 2.453125 -4.171875 L 2.265625 -4.171875 C 2.253906 -4.117188 2.234375 -4.039062 2.203125 -3.9375 C 2.179688 -3.832031 2.164062 -3.753906 2.15625 -3.703125 L 1.734375 -2.171875 Z M 2.984375 -2.171875 "/></g></g></g><g fill="#545454" fill-opacity="1"><g transform="translate(121.782806, 134.107077)"><g/></g></g><g fill="#545454" fill-opacity="1"><g transform="translate(129.163782, 134.107077)"><g><path d="M 0.5 0 L 0.5 -5 C 1.1875 -5.039062 1.835938 -5.0625 2.453125 -5.0625 C 3.242188 -5.0625 3.796875 -4.878906 4.109375 -4.515625 C 4.421875 -4.148438 4.578125 -3.476562 4.578125 -2.5 C 4.578125 -1.519531 4.421875 -0.847656 4.109375 -0.484375 C 3.796875 -0.117188 3.242188 0.0625 2.453125 0.0625 C 1.835938 0.0625 1.1875 0.0390625 0.5 0 Z M 1.609375 -4.203125 L 1.609375 -0.8125 C 1.691406 -0.8125 1.828125 -0.8125 2.015625 -0.8125 C 2.203125 -0.8125 2.347656 -0.8125 2.453125 -0.8125 C 2.828125 -0.8125 3.082031 -0.925781 3.21875 -1.15625 C 3.351562 -1.394531 3.421875 -1.84375 3.421875 -2.5 C 3.421875 -3.15625 3.351562 -3.601562 3.21875 -3.84375 C 3.082031 -4.082031 2.828125 -4.203125 2.453125 -4.203125 Z M 1.609375 -4.203125 "/></g></g></g><g fill="#545454" fill-opacity="1"><g transform="translate(139.905046, 134.107077)"><g><path d="M 3.828125 -0.859375 L 3.890625 -0.046875 C 3.429688 -0.00390625 2.65625 0.015625 1.5625 0.015625 C 1.226562 0.015625 0.960938 -0.0703125 0.765625 -0.25 C 0.566406 -0.425781 0.46875 -0.671875 0.46875 -0.984375 L 0.46875 -4.015625 C 0.46875 -4.328125 0.566406 -4.570312 0.765625 -4.75 C 0.960938 -4.9375 1.226562 -5.03125 1.5625 -5.03125 C 2.65625 -5.03125 3.429688 -5.003906 3.890625 -4.953125 L 3.828125 -4.125 L 1.90625 -4.125 C 1.789062 -4.125 1.707031 -4.09375 1.65625 -4.03125 C 1.601562 -3.976562 1.578125 -3.890625 1.578125 -3.765625 L 1.578125 -3 L 3.5625 -3 L 3.5625 -2.203125 L 1.578125 -2.203125 L 1.578125 -1.234375 C 1.578125 -1.097656 1.601562 -1 1.65625 -0.9375 C 1.707031 -0.882812 1.789062 -0.859375 1.90625 -0.859375 Z M 3.828125 -0.859375 "/></g></g></g><g fill="#545454" fill-opacity="1"><g transform="translate(149.891511, 134.107077)"><g/></g></g><g fill="#545454" fill-opacity="1"><g transform="translate(157.272487, 134.107077)"><g><path d="M 2.359375 -1.890625 L 1.34375 -2.25 C 0.976562 -2.382812 0.710938 -2.566406 0.546875 -2.796875 C 0.390625 -3.023438 0.3125 -3.332031 0.3125 -3.71875 C 0.3125 -4.257812 0.441406 -4.625 0.703125 -4.8125 C 0.972656 -5 1.445312 -5.09375 2.125 -5.09375 C 2.769531 -5.09375 3.320312 -5.03125 3.78125 -4.90625 L 3.703125 -4.140625 C 3.285156 -4.160156 2.765625 -4.171875 2.140625 -4.171875 C 1.847656 -4.171875 1.648438 -4.144531 1.546875 -4.09375 C 1.453125 -4.039062 1.40625 -3.914062 1.40625 -3.71875 C 1.40625 -3.550781 1.441406 -3.429688 1.515625 -3.359375 C 1.585938 -3.285156 1.726562 -3.210938 1.9375 -3.140625 L 2.890625 -2.8125 C 3.273438 -2.6875 3.546875 -2.503906 3.703125 -2.265625 C 3.859375 -2.023438 3.9375 -1.71875 3.9375 -1.34375 C 3.9375 -0.78125 3.800781 -0.398438 3.53125 -0.203125 C 3.257812 -0.00390625 2.78125 0.09375 2.09375 0.09375 C 1.519531 0.09375 0.945312 0.03125 0.375 -0.09375 L 0.4375 -0.890625 C 1.46875 -0.867188 2.019531 -0.859375 2.09375 -0.859375 C 2.382812 -0.859375 2.578125 -0.890625 2.671875 -0.953125 C 2.773438 -1.015625 2.828125 -1.144531 2.828125 -1.34375 C 2.828125 -1.507812 2.789062 -1.628906 2.71875 -1.703125 C 2.65625 -1.773438 2.535156 -1.835938 2.359375 -1.890625 Z M 2.359375 -1.890625 "/></g></g></g><g fill="#545454" fill-opacity="1"><g transform="translate(167.302501, 134.107077)"><g><path d="M 0.8125 -4.53125 C 1.125 -4.90625 1.679688 -5.09375 2.484375 -5.09375 C 3.285156 -5.09375 3.84375 -4.90625 4.15625 -4.53125 C 4.46875 -4.164062 4.625 -3.488281 4.625 -2.5 C 4.625 -1.507812 4.46875 -0.828125 4.15625 -0.453125 C 3.84375 -0.0859375 3.285156 0.09375 2.484375 0.09375 C 1.679688 0.09375 1.125 -0.0859375 0.8125 -0.453125 C 0.5 -0.828125 0.34375 -1.507812 0.34375 -2.5 C 0.34375 -3.488281 0.5 -4.164062 0.8125 -4.53125 Z M 3.25 -3.84375 C 3.113281 -4.082031 2.851562 -4.203125 2.46875 -4.203125 C 2.09375 -4.203125 1.835938 -4.082031 1.703125 -3.84375 C 1.566406 -3.613281 1.5 -3.164062 1.5 -2.5 C 1.5 -1.84375 1.566406 -1.394531 1.703125 -1.15625 C 1.835938 -0.914062 2.09375 -0.796875 2.46875 -0.796875 C 2.851562 -0.796875 3.113281 -0.914062 3.25 -1.15625 C 3.382812 -1.394531 3.453125 -1.84375 3.453125 -2.5 C 3.453125 -3.164062 3.382812 -3.613281 3.25 -3.84375 Z M 3.25 -3.84375 "/></g></g></g><g fill="#545454" fill-opacity="1"><g transform="translate(178.072779, 134.107077)"><g><path d="M 4.734375 -5 L 4.734375 -0.40625 C 4.734375 -0.132812 4.597656 0 4.328125 0 L 3.640625 0 C 3.535156 0 3.453125 -0.0234375 3.390625 -0.078125 C 3.328125 -0.128906 3.265625 -0.210938 3.203125 -0.328125 L 1.890625 -3 C 1.722656 -3.351562 1.625 -3.609375 1.59375 -3.765625 L 1.515625 -3.765625 C 1.546875 -3.523438 1.5625 -3.257812 1.5625 -2.96875 L 1.5625 0 L 0.5 0 L 0.5 -4.609375 C 0.5 -4.867188 0.632812 -5 0.90625 -5 L 1.578125 -5 C 1.691406 -5 1.78125 -4.972656 1.84375 -4.921875 C 1.90625 -4.867188 1.960938 -4.785156 2.015625 -4.671875 L 3.296875 -2.09375 C 3.410156 -1.84375 3.53125 -1.570312 3.65625 -1.28125 L 3.71875 -1.28125 C 3.695312 -1.65625 3.6875 -1.9375 3.6875 -2.125 L 3.6875 -5 Z M 4.734375 -5 "/></g></g></g><g fill="#545454" fill-opacity="1"><g transform="translate(189.11886, 134.107077)"><g><path d="M 0.8125 -4.53125 C 1.125 -4.90625 1.679688 -5.09375 2.484375 -5.09375 C 3.285156 -5.09375 3.84375 -4.90625 4.15625 -4.53125 C 4.46875 -4.164062 4.625 -3.488281 4.625 -2.5 C 4.625 -1.507812 4.46875 -0.828125 4.15625 -0.453125 C 3.84375 -0.0859375 3.285156 0.09375 2.484375 0.09375 C 1.679688 0.09375 1.125 -0.0859375 0.8125 -0.453125 C 0.5 -0.828125 0.34375 -1.507812 0.34375 -2.5 C 0.34375 -3.488281 0.5 -4.164062 0.8125 -4.53125 Z M 3.25 -3.84375 C 3.113281 -4.082031 2.851562 -4.203125 2.46875 -4.203125 C 2.09375 -4.203125 1.835938 -4.082031 1.703125 -3.84375 C 1.566406 -3.613281 1.5 -3.164062 1.5 -2.5 C 1.5 -1.84375 1.566406 -1.394531 1.703125 -1.15625 C 1.835938 -0.914062 2.09375 -0.796875 2.46875 -0.796875 C 2.851562 -0.796875 3.113281 -0.914062 3.25 -1.15625 C 3.382812 -1.394531 3.453125 -1.84375 3.453125 -2.5 C 3.453125 -3.164062 3.382812 -3.613281 3.25 -3.84375 Z M 3.25 -3.84375 "/></g></g></g><g fill="#545454" fill-opacity="1"><g transform="translate(199.889138, 134.107077)"><g/></g></g><g fill="#545454" fill-opacity="1"><g transform="translate(207.270105, 134.107077)"><g><path d="M 1.609375 0 L 0.5 0 L 0.5 -5 L 1.609375 -5 Z M 1.609375 0 "/></g></g></g><g fill="#545454" fill-opacity="1"><g transform="translate(215.195405, 134.107077)"><g><path d="M 4.734375 -5 L 4.734375 -0.40625 C 4.734375 -0.132812 4.597656 0 4.328125 0 L 3.640625 0 C 3.535156 0 3.453125 -0.0234375 3.390625 -0.078125 C 3.328125 -0.128906 3.265625 -0.210938 3.203125 -0.328125 L 1.890625 -3 C 1.722656 -3.351562 1.625 -3.609375 1.59375 -3.765625 L 1.515625 -3.765625 C 1.546875 -3.523438 1.5625 -3.257812 1.5625 -2.96875 L 1.5625 0 L 0.5 0 L 0.5 -4.609375 C 0.5 -4.867188 0.632812 -5 0.90625 -5 L 1.578125 -5 C 1.691406 -5 1.78125 -4.972656 1.84375 -4.921875 C 1.90625 -4.867188 1.960938 -4.785156 2.015625 -4.671875 L 3.296875 -2.09375 C 3.410156 -1.84375 3.53125 -1.570312 3.65625 -1.28125 L 3.71875 -1.28125 C 3.695312 -1.65625 3.6875 -1.9375 3.6875 -2.125 L 3.6875 -5 Z M 4.734375 -5 "/></g></g></g><g fill="#545454" fill-opacity="1"><g transform="translate(226.241486, 134.107077)"><g><path d="M 3.78125 -4.125 L 2 -4.125 C 1.851562 -4.125 1.75 -4.09375 1.6875 -4.03125 C 1.632812 -3.976562 1.609375 -3.890625 1.609375 -3.765625 L 1.609375 -2.90625 L 3.515625 -2.90625 L 3.515625 -2.109375 L 1.609375 -2.109375 L 1.609375 0 L 0.5 0 L 0.5 -3.984375 C 0.5 -4.304688 0.597656 -4.5625 0.796875 -4.75 C 0.992188 -4.9375 1.257812 -5.03125 1.59375 -5.03125 C 2.65625 -5.03125 3.40625 -5 3.84375 -4.9375 Z M 3.78125 -4.125 "/></g></g></g><g fill="#545454" fill-opacity="1"><g transform="translate(236.06828, 134.107077)"><g><path d="M 3.21875 -1.3125 L 1.5 -1.3125 L 1.140625 0 L 0 0 L 1.453125 -4.71875 C 1.472656 -4.800781 1.519531 -4.867188 1.59375 -4.921875 C 1.664062 -4.972656 1.742188 -5 1.828125 -5 L 2.875 -5 C 3.082031 -5 3.210938 -4.90625 3.265625 -4.71875 L 4.703125 0 L 3.578125 0 Z M 2.984375 -2.171875 L 2.5625 -3.703125 C 2.5 -3.941406 2.460938 -4.097656 2.453125 -4.171875 L 2.265625 -4.171875 C 2.253906 -4.117188 2.234375 -4.039062 2.203125 -3.9375 C 2.179688 -3.832031 2.164062 -3.753906 2.15625 -3.703125 L 1.734375 -2.171875 Z M 2.984375 -2.171875 "/></g></g></g><g fill="#545454" fill-opacity="1"><g transform="translate(246.591806, 134.107077)"><g><path d="M 4.734375 -5 L 4.734375 -0.40625 C 4.734375 -0.132812 4.597656 0 4.328125 0 L 3.640625 0 C 3.535156 0 3.453125 -0.0234375 3.390625 -0.078125 C 3.328125 -0.128906 3.265625 -0.210938 3.203125 -0.328125 L 1.890625 -3 C 1.722656 -3.351562 1.625 -3.609375 1.59375 -3.765625 L 1.515625 -3.765625 C 1.546875 -3.523438 1.5625 -3.257812 1.5625 -2.96875 L 1.5625 0 L 0.5 0 L 0.5 -4.609375 C 0.5 -4.867188 0.632812 -5 0.90625 -5 L 1.578125 -5 C 1.691406 -5 1.78125 -4.972656 1.84375 -4.921875 C 1.90625 -4.867188 1.960938 -4.785156 2.015625 -4.671875 L 3.296875 -2.09375 C 3.410156 -1.84375 3.53125 -1.570312 3.65625 -1.28125 L 3.71875 -1.28125 C 3.695312 -1.65625 3.6875 -1.9375 3.6875 -2.125 L 3.6875 -5 Z M 4.734375 -5 "/></g></g></g><g fill="#545454" fill-opacity="1"><g transform="translate(257.637887, 134.107077)"><g><path d="M 4.234375 -4.109375 L 2.734375 -4.109375 L 2.734375 0 L 1.625 0 L 1.625 -4.109375 L 0.125 -4.109375 L 0.125 -5 L 4.234375 -5 Z M 4.234375 -4.109375 "/></g></g></g><g fill="#545454" fill-opacity="1"><g transform="translate(267.805785, 134.107077)"><g><path d="M 1.609375 0 L 0.5 0 L 0.5 -5 L 1.609375 -5 Z M 1.609375 0 "/></g></g></g><g fill="#545454" fill-opacity="1"><g transform="translate(275.731085, 134.107077)"><g><path d="M 1.59375 -5 L 1.59375 -1.265625 C 1.59375 -1.140625 1.625 -1.046875 1.6875 -0.984375 C 1.75 -0.929688 1.847656 -0.90625 1.984375 -0.90625 L 3.703125 -0.90625 L 3.75 -0.0625 C 3.257812 -0.0078125 2.554688 0.015625 1.640625 0.015625 C 1.253906 0.015625 0.96875 -0.078125 0.78125 -0.265625 C 0.59375 -0.460938 0.5 -0.722656 0.5 -1.046875 L 0.5 -5 Z M 1.59375 -5 "/></g></g></g><g mask="url(#6953c3e355)"><g transform="matrix(1, 0, 0, 1, 86, 12)"><g clip-path="url(#9974c9650c)"><path fill="#ffffff" d="M 33.546875 43.753906 C 36.382812 43.550781 36.496094 45.65625 35.597656 45.867188 C 34.703125 46.078125 31.246094 46.859375 27.355469 47.429688 C 23.464844 48.003906 21.894531 47.742188 22.371094 45.6875 C 22.847656 43.632812 29.550781 37.207031 30.296875 36.105469 C 31.046875 35.007812 31.488281 35.027344 26.835938 35.691406 C 22.179688 36.355469 21.636719 32.152344 25.28125 31.589844 C 28.722656 31.058594 33.855469 31.863281 34.671875 32.027344 C 35.488281 32.191406 37.386719 33.640625 35.585938 35.507812 C 33.789062 37.378906 26.996094 43.007812 26.375 44.050781 C 25.757812 45.089844 26.066406 45.230469 27.664062 44.925781 C 29.261719 44.625 31.957031 43.867188 33.546875 43.753906 " fill-opacity="1" fill-rule="nonzero"/><path fill="#ffffff" d="M 60.667969 35.539062 C 65.441406 35.738281 64.316406 37.175781 63.160156 38.199219 C 61.097656 40.011719 55.699219 39.03125 49.09375 39.253906 C 42.484375 39.472656 39.914062 38.738281 41.105469 35.394531 C 42.296875 32.050781 52.042969 23.660156 53.503906 21.964844 C 54.964844 20.273438 58.371094 19.324219 50.472656 19.546875 C 42.574219 19.777344 41.027344 14.664062 47.214844 14.417969 C 53.070312 14.183594 62.929688 14.488281 64.257812 14.914062 C 65.589844 15.34375 66.75 18.507812 63.390625 21.285156 C 60.03125 24.066406 49.339844 31.792969 48.105469 33.414062 C 46.871094 35.039062 47.363281 35.332031 50.085938 35.128906 C 52.8125 34.925781 57.992188 35.429688 60.667969 35.539062 " fill-opacity="1" fill-rule="nonzero"/><g clip-path="url(#c54306cb46)"><path fill="#ffffff" d="M 90.960938 26.773438 C 96.742188 27.613281 96.03125 31.894531 94.136719 31.917969 C 92.246094 31.941406 84.960938 31.988281 76.894531 31.421875 C 68.832031 30.855469 65.796875 29.632812 67.675781 25.71875 C 69.550781 21.804688 85.863281 11.867188 87.855469 9.992188 C 89.851562 8.121094 88.535156 7.972656 78.902344 7.25 C 69.265625 6.523438 70.230469 0.5 77.785156 0.980469 C 84.9375 1.4375 96.890625 3.050781 98.453125 3.742188 C 100.015625 4.429688 102.589844 8.632812 98.148438 11.585938 C 93.703125 14.542969 78.148438 22.378906 76.441406 24.199219 C 74.730469 26.015625 75.292969 26.433594 78.632812 26.53125 C 81.972656 26.628906 87.722656 26.300781 90.960938 26.773438 " fill-opacity="1" fill-rule="nonzero"/></g><g clip-path="url(#9b32ca5f1e)"><path fill="#ffffff" d="M 116.054688 37.554688 C 120.109375 38.503906 119.089844 40.617188 117.996094 41.40625 C 114.171875 44.171875 111.464844 40.902344 105.769531 40.011719 C 100.070312 39.121094 97.988281 38.070312 99.558594 35.398438 C 101.132812 32.730469 113.339844 26.652344 114.871094 25.4375 C 116.398438 24.226562 117.011719 24.449219 110.203125 23.351562 C 103.394531 22.253906 103.742188 15.601562 109.085938 16.402344 C 114.144531 17.15625 121.714844 21.046875 122.785156 21.632812 C 123.855469 22.214844 124.34375 23.574219 121.003906 25.40625 C 117.664062 27.238281 107.210938 33.660156 105.886719 34.847656 C 104.558594 36.039062 104.933594 36.367188 107.300781 36.640625 C 109.671875 36.910156 113.777344 37.023438 116.054688 37.554688 " fill-opacity="1" fill-rule="nonzero"/></g><path fill="#ffffff" d="M 5.6875 59.953125 C 5.621094 61.34375 6.699219 62.523438 8.097656 62.589844 C 9.496094 62.65625 10.683594 61.582031 10.75 60.191406 C 10.816406 58.804688 9.734375 57.625 8.335938 57.558594 C 6.9375 57.492188 5.753906 58.566406 5.6875 59.953125 " fill-opacity="1" fill-rule="nonzero"/><path fill="#ffffff" d="M 11.753906 53.664062 C 11.675781 55.367188 13 56.820312 14.714844 56.898438 C 16.429688 56.976562 17.886719 55.660156 17.96875 53.953125 C 18.046875 52.246094 16.722656 50.800781 15.007812 50.71875 C 13.292969 50.636719 11.835938 51.957031 11.753906 53.664062 " fill-opacity="1" fill-rule="nonzero"/><g clip-path="url(#f30cb4707d)"><path fill="#ffffff" d="M 1.152344 66.992188 C 1.113281 67.824219 1.757812 68.527344 2.59375 68.570312 C 3.429688 68.605469 4.136719 67.964844 4.179688 67.136719 C 4.214844 66.304688 3.570312 65.597656 2.734375 65.5625 C 1.902344 65.519531 1.191406 66.160156 1.152344 66.992188 " fill-opacity="1" fill-rule="nonzero"/></g></g></g></g></svg>